HIERARCHY
ROOT Hips
{
	OFFSET 0.000000 0.000000 0.000000
	CHANNELS 6 Xposition Yposition Zposition Zrotation Yrotation Xrotation 
	JOINT LHipJoint
	{
		OFFSET 0.000000 0.000000 0.000000
		CHANNELS 3 Zrotation Yrotation Xrotation
		JOINT LeftUpLeg
		{
			OFFSET 1.363060 -1.794630 0.839290
			CHANNELS 3 Zrotation Yrotation Xrotation
			JOINT LeftLeg
			{
				OFFSET 2.448110 -6.726130 0.000000
				CHANNELS 3 Zrotation Yrotation Xrotation
				JOINT LeftFoot
				{
					OFFSET 2.562200 -7.039590 0.000000
					CHANNELS 3 Zrotation Yrotation Xrotation
					JOINT LeftToeBase
					{
						OFFSET 0.157640 -0.433110 2.322550
						CHANNELS 3 Zrotation Yrotation Xrotation
						End Site
						{
							OFFSET 0.000000 0.000000 0.000000
						}
					}
				}
			}
		}
	}
	JOINT RHipJoint
	{
		OFFSET 0.000000 0.000000 0.000000
		CHANNELS 3 Zrotation Yrotation Xrotation
		JOINT RightUpLeg
		{
			OFFSET -1.305520 -1.794630 0.839290
			CHANNELS 3 Zrotation Yrotation Xrotation
			JOINT RightLeg
			{
				OFFSET -2.542530 -6.985550 0.000000
				CHANNELS 3 Zrotation Yrotation Xrotation
				JOINT RightFoot
				{
					OFFSET -2.568260 -7.056230 0.000000
					CHANNELS 3 Zrotation Yrotation Xrotation
					JOINT RightToeBase
					{
						OFFSET -0.164730 -0.452590 2.363150
						CHANNELS 3 Zrotation Yrotation Xrotation
						End Site
						{
							OFFSET 0.000000 0.000000 0.000000
						}
					}
				}
			}
		}
	}
	JOINT LowerBack
	{
		OFFSET 0.000000 0.000000 0.000000
		CHANNELS 3 Zrotation Yrotation Xrotation
		JOINT Spine
		{
			OFFSET 0.028270 2.035590 -0.193380
			CHANNELS 3 Zrotation Yrotation Xrotation
			JOINT Spine1
			{
				OFFSET 0.056720 2.048850 -0.042750
				CHANNELS 3 Zrotation Yrotation Xrotation
				JOINT Neck
				{
					OFFSET 0.000000 0.000000 0.000000
					CHANNELS 3 Zrotation Yrotation Xrotation
					JOINT Neck1
					{
						OFFSET -0.054170 1.746240 0.172020
						CHANNELS 3 Zrotation Yrotation Xrotation
						JOINT Head
						{
							OFFSET 0.104070 1.761360 -0.123970
							CHANNELS 3 Zrotation Yrotation Xrotation
							End Site
							{
								OFFSET 0.000000 0.000000 0.000000
							}
						}
					}
				}
				JOINT LeftShoulder
				{
					OFFSET 0.000000 0.000000 0.000000
					CHANNELS 3 Zrotation Yrotation Xrotation
					JOINT LeftArm
					{
						OFFSET 3.362410 1.200890 -0.311210
						CHANNELS 3 Zrotation Yrotation Xrotation
						JOINT LeftForeArm
						{
							OFFSET 4.983000 -0.000000 -0.000000
							CHANNELS 3 Zrotation Yrotation Xrotation
							JOINT LeftHand
							{
								OFFSET 3.483560 -0.000000 -0.000000
								CHANNELS 3 Zrotation Yrotation Xrotation
								JOINT LeftFingerBase
								{
									OFFSET 0.000000 0.000000 0.000000
									CHANNELS 3 Zrotation Yrotation Xrotation
									JOINT LeftHandIndex1
									{
										OFFSET 0.715260 -0.000000 -0.000000
										CHANNELS 3 Zrotation Yrotation Xrotation
										End Site
										{
											OFFSET 0.000000 0.000000 0.000000
										}
									}
								}
								JOINT LThumb
								{
									OFFSET 0.000000 0.000000 0.000000
									CHANNELS 3 Zrotation Yrotation Xrotation
									End Site
									{
										OFFSET 0.000000 0.000000 0.000000
									}
								}
							}
						}
					}
				}
				JOINT RightShoulder
				{
					OFFSET 0.000000 0.000000 0.000000
					CHANNELS 3 Zrotation Yrotation Xrotation
					JOINT RightArm
					{
						OFFSET -3.136600 1.374050 -0.404650
						CHANNELS 3 Zrotation Yrotation Xrotation
						JOINT RightForeArm
						{
							OFFSET -5.241900 -0.000000 -0.000000
							CHANNELS 3 Zrotation Yrotation Xrotation
							JOINT RightHand
							{
								OFFSET -3.444170 -0.000000 -0.000000
								CHANNELS 3 Zrotation Yrotation Xrotation
								JOINT RightFingerBase
								{
									OFFSET 0.000000 0.000000 0.000000
									CHANNELS 3 Zrotation Yrotation Xrotation
									JOINT RightHandIndex1
									{
										OFFSET -0.622530 -0.000000 -0.000000
										CHANNELS 3 Zrotation Yrotation Xrotation
										End Site
										{
											OFFSET 0.000000 0.000000 0.000000
										}
									}
								}
								JOINT RThumb
								{
									OFFSET 0.000000 0.000000 0.000000
									CHANNELS 3 Zrotation Yrotation Xrotation
									End Site
									{
										OFFSET 0.000000 0.000000 0.000000
									}
								}
							}
						}
					}
				}
			}
		}
	}
}
MOTION
Frames: 11
Frame Time: 0.008333
6.054797 17.204985 -1.139916 165.102943 -84.580603 -155.273945 6.455683 2.106887 -0.986264 -15.026912 -12.461512 -27.505973 14.365957 20.298046 74.750409 -0.310618 10.778376 23.256372 2.544700 -9.918700 -28.713900 -13.042881 -5.280146 -1.346252 48.793413 3.440847 -20.196108 -2.923966 -11.643042 33.829623 -0.654703 1.330131 -6.586811 -1.523300 -7.793200 22.087700 -3.956492 -1.580187 3.763306 -0.093640 -3.122061 -5.779581 0.308300 -1.050487 -13.738799 -18.823333 -19.223347 8.260251 17.613157 -31.130570 2.817175 9.440300 -16.572900 5.298500 -1.848082 -13.188945 3.539193 -86.125986 21.427810 37.056153 134.984590 -42.620526 -99.248933 1.346897 1.411298 15.906478 22.962573 30.535234 11.072700 -7.125000 0.000000 0.000000 -10.224300 60.445800 -3.874700 1.525734 11.537993 0.861648 25.908223 33.750752 -34.622961 -92.228445 52.980707 -68.949595 -0.508693 2.148356 -6.798972 -6.540507 27.651435 -2.713700 7.125000 0.000000 0.000000 14.147400 -5.032800 13.271700 
5.873628 17.177602 -1.144516 176.580257 -77.982137 -166.105951 6.682785 2.335195 -0.842511 -14.256621 -14.901880 -29.253264 14.645120 20.679532 75.186150 -1.963808 14.018875 18.685377 1.363600 -7.391100 -20.879200 -12.961795 -4.914908 -1.681366 49.110847 3.096061 -19.302829 -3.250078 -11.635820 34.381434 -1.159690 5.806364 -3.041439 -1.545700 -7.847700 22.252500 -4.399519 -1.709753 3.628988 0.178086 -3.413910 -5.666600 1.303559 -0.934600 -13.382137 -18.502633 -19.694015 8.315194 18.034888 -32.223390 2.769301 9.329900 -17.129500 5.561200 -1.771084 -13.219512 3.671105 -85.959275 21.976228 37.587185 135.303621 -42.431605 -99.478605 1.356938 1.396476 15.957795 23.208073 30.121372 11.059400 -7.125000 0.000000 0.000000 -9.729700 60.094400 -3.603600 1.528839 11.780342 0.402424 24.450238 35.061808 -34.147549 -92.979432 53.159088 -69.309054 -0.623838 2.104866 -10.012659 -5.966162 26.440791 -2.356600 7.125000 0.000000 0.000000 14.486000 -6.246400 13.265500 
5.686654 17.170701 -1.135754 -179.418348 -71.035895 -169.460583 6.952913 2.356030 -0.824782 -13.396681 -16.723689 -30.887832 14.715412 20.916152 75.254430 -3.189330 16.114924 14.740339 0.984400 -6.315200 -17.701700 -12.900602 -4.687721 -1.771210 49.361167 4.501329 -17.652633 -3.430503 -11.591857 34.663574 -1.373555 8.791682 -0.323993 -1.722800 -8.263100 23.516000 -4.558299 -1.694812 3.774425 0.445712 -3.513218 -5.669412 2.243054 -0.777635 -13.492072 -17.852533 -19.904583 7.884492 17.477485 -32.694148 3.696852 8.778100 -17.380700 5.868100 -1.691214 -13.292328 3.771342 -85.919319 23.036106 38.479071 135.531221 -42.279464 -99.591565 1.379734 1.395267 16.102828 23.855597 30.080844 11.381700 -7.125000 0.000000 0.000000 -8.996800 60.198400 -3.351700 1.553261 12.040885 -0.066422 22.843419 36.027675 -33.870944 -93.874471 53.407679 -69.848203 -0.719770 2.049630 -14.048468 -5.065019 24.844350 -1.880200 7.125000 0.000000 0.000000 15.016900 -7.844900 13.304200 
5.491904 17.166758 -1.104536 -176.816452 -63.872624 -171.192286 7.222075 2.311353 -0.858747 -12.136445 -18.150003 -32.533582 14.651329 21.090773 75.101051 -4.004734 17.235988 11.270293 0.673900 -5.249200 -14.620700 -12.890767 -4.475985 -1.767029 49.749442 6.772719 -15.741517 -3.500696 -11.469766 34.601312 -1.450028 10.990676 2.045204 -2.006700 -8.880100 25.421000 -4.094381 -1.599959 3.714521 0.683900 -3.436753 -5.617657 2.818885 -0.621265 -13.439399 -17.636797 -19.808050 7.703856 17.603558 -32.824130 3.776892 8.710800 -17.453200 5.954700 -1.653037 -13.415395 3.910206 -85.491681 23.751072 39.532114 135.691430 -42.173277 -99.656552 1.396062 1.408272 15.531077 24.532183 30.106343 11.740200 -7.125000 0.000000 0.000000 -8.278200 60.378000 -3.117100 1.557421 12.282114 -0.597836 20.901699 36.975765 -34.538093 -95.470724 53.865287 -71.173091 -0.765361 1.997289 -18.309953 -3.906588 22.639380 -1.335900 7.125000 0.000000 0.000000 15.721000 -10.023100 13.267900 
5.283242 17.184721 -1.065543 -174.788174 -56.595604 -172.208031 7.479623 2.226696 -0.862980 -10.477124 -20.359182 -33.792588 14.385086 21.186678 74.497685 -4.152598 16.965483 9.078998 0.491300 -4.494400 -12.471800 -12.932019 -4.288076 -1.728446 50.269495 9.063849 -13.833347 -3.551740 -11.294371 34.392466 -1.444938 13.138992 4.915345 -2.295800 -9.456900 27.235200 -3.137242 -1.476040 3.700009 0.917325 -3.299586 -5.588183 3.202817 -0.486745 -13.517153 -17.941672 -19.224490 8.038403 18.146538 -32.486739 3.631816 9.064500 -17.366100 5.965500 -1.618409 -13.547982 4.021254 -85.367493 24.415980 40.642539 135.642838 -42.199859 -99.521793 1.422418 1.406333 15.108759 25.555438 29.782388 12.156100 -7.125000 0.000000 0.000000 -6.990100 60.290300 -2.614500 1.530355 12.439347 -1.005808 18.711953 37.778677 -35.340348 -95.539094 54.356758 -70.973435 -0.844905 1.940153 -22.728460 -3.046112 21.264555 -0.990800 7.125000 0.000000 0.000000 16.269900 -11.372900 13.303700 
5.055522 17.221744 -1.020524 -173.431078 -48.970187 -172.594881 7.701174 2.128325 -0.813923 -8.657698 -23.084945 -34.587353 13.934922 21.189020 73.569281 -3.402180 14.537328 7.931240 0.525900 -4.647500 -12.905900 -12.987560 -4.138151 -1.711269 50.530911 10.748758 -12.091472 -3.662162 -11.066311 34.123043 -1.369729 16.282108 8.455106 -2.327800 -9.517900 27.429200 -2.081930 -1.308771 3.897441 1.150438 -3.102918 -5.578389 3.561782 -0.329704 -13.731680 -18.424051 -18.317842 8.331138 18.545628 -31.649845 3.642187 9.482700 -17.052100 5.917000 -1.593431 -13.667803 4.115215 -85.288643 25.357289 41.715587 135.772170 -42.122320 -99.532298 1.437869 1.394380 14.900916 26.048640 29.333793 12.240300 -7.125000 0.000000 0.000000 -6.237700 59.952400 -2.281400 1.508885 12.580497 -1.332245 16.283170 38.484745 -36.298493 -96.089361 54.937854 -71.220605 -0.897590 1.874523 -27.049925 -2.202816 19.284221 -0.668100 7.125000 0.000000 0.000000 16.856000 -13.273200 13.129100 
4.801842 17.256685 -0.963348 -172.658981 -41.125698 -172.230075 7.894935 2.043181 -0.754655 -6.758249 -26.054520 -35.419876 13.380620 21.148529 72.212396 -2.602991 12.331586 7.865380 0.387800 -3.999000 -11.073800 -13.051295 -4.023611 -1.683566 50.201530 12.114225 -11.046454 -3.868084 -10.937156 34.142737 -1.163680 19.496743 12.918007 -2.615200 -10.044300 29.120400 -1.013678 -1.071237 4.056709 1.306091 -2.779461 -5.548525 3.650413 -0.185241 -13.772301 -18.308805 -17.568264 7.819442 18.442556 -30.633754 3.881836 9.542700 -16.571900 5.797000 -1.521194 -13.728707 4.123343 -85.808411 25.504232 42.078298 135.609757 -42.211403 -99.297339 1.364393 1.405175 15.254495 24.652843 29.210896 11.485900 -7.125000 0.000000 0.000000 -7.649200 59.496600 -2.717700 1.498044 12.702212 -1.428542 13.429237 38.929054 -37.750759 -95.940767 55.578054 -70.851077 -0.951016 1.815072 -31.085781 -1.720863 17.527786 -0.492700 7.125000 0.000000 0.000000 17.237600 -14.938800 12.814300 
4.521108 17.324596 -0.913948 -172.206838 -33.206586 -171.548498 8.057805 1.974579 -0.680271 -4.766368 -29.632408 -35.789081 12.691839 21.030428 70.363955 -2.025528 10.718083 7.558349 0.969700 -6.269300 -17.567800 -13.125242 -3.930424 -1.668332 49.380240 13.272637 -10.411450 -4.130903 -10.895487 34.383778 -0.938649 22.135685 17.930895 -2.825100 -10.406300 30.302900 -0.044678 -0.731969 4.297781 1.372878 -2.289827 -5.494811 3.475234 -0.015783 -13.676066 -17.724812 -17.066934 6.744843 17.758015 -29.663812 4.504097 9.196500 -16.061900 5.720900 -1.489035 -13.685009 4.077126 -85.361894 25.595601 43.190588 135.374725 -42.334737 -98.998268 1.299992 1.439204 15.389019 23.264906 29.703932 10.959100 -7.125000 0.000000 0.000000 -9.357700 59.661300 -3.367500 1.518697 12.745645 -1.269489 10.477260 38.949929 -39.307470 -94.855717 56.134870 -69.694438 -0.998465 1.775266 -34.717966 -1.393810 16.274490 -0.390400 7.125000 0.000000 0.000000 17.503300 -16.127100 12.559300 
4.213537 17.371038 -0.875173 -171.968759 -25.346488 -170.963415 8.172166 1.925147 -0.601431 -2.932261 -32.807280 -35.740636 11.866428 20.775243 68.157194 -0.966100 7.940239 8.186331 1.022600 -6.433100 -18.046300 -13.195999 -3.848132 -1.673849 48.216409 14.232719 -9.894861 -4.419240 -10.933930 34.835604 -0.846136 23.914000 22.594027 -2.787600 -10.343000 30.094700 0.680734 -0.387498 4.832883 1.408462 -1.767282 -5.417698 3.317807 0.182732 -13.609759 -17.248346 -16.529275 5.597844 16.863653 -28.652315 5.376723 8.754200 -15.536500 5.743900 -1.465924 -13.634676 4.010713 -84.966536 25.706775 44.310019 135.150957 -42.451887 -98.707896 1.251243 1.439549 15.440536 22.215035 29.411441 10.334800 -7.125000 0.000000 0.000000 -10.305800 59.134700 -3.582900 1.543049 12.767086 -1.033159 7.708243 38.750554 -40.721324 -94.848138 56.626964 -69.605356 -0.993714 1.748447 -37.912543 -0.948880 14.175826 -0.262100 7.125000 0.000000 0.000000 17.917200 -18.099400 12.069500 
3.886032 17.447273 -0.872873 -171.681730 -17.273700 -170.564039 8.247250 1.897583 -0.499474 -1.035622 -36.517378 -34.844131 10.998050 20.402245 65.715822 0.019509 5.324668 8.902011 1.080900 -6.608000 -18.559200 -13.277561 -3.801336 -1.751506 46.943881 14.737763 -9.318672 -4.695441 -10.955150 35.213264 -0.977032 24.951477 27.322367 -2.949600 -10.613100 30.985700 1.299036 -0.019262 5.597652 1.417361 -1.165390 -5.282747 3.121618 0.416986 -13.451111 -16.684786 -15.910405 4.420064 16.242029 -27.547213 5.939217 8.434800 -14.956800 5.676900 -1.444715 -13.553544 3.923652 -84.567587 25.591212 45.567437 135.077258 -42.482672 -98.556978 1.256291 1.452237 15.923385 22.145050 29.908913 10.464500 -7.125000 0.000000 0.000000 -10.633900 59.601200 -3.817400 1.571998 12.752453 -0.696672 5.209880 38.330499 -41.613643 -94.223785 56.983653 -68.933400 -1.001441 1.724659 -40.946710 -0.849360 12.553289 -0.225300 7.125000 0.000000 0.000000 18.091200 -19.613300 11.554000 
3.543959 17.557683 -0.913181 -171.236232 -8.831795 -170.081498 8.296876 1.909491 -0.397610 0.458693 -39.504973 -33.235083 10.016057 19.850432 62.897145 1.199103 2.162239 10.561514 1.362500 -7.388200 -20.870700 -13.361899 -3.860304 -1.889491 45.573026 14.460529 -9.168535 -4.975799 -10.984009 35.511811 -1.493560 25.410500 32.845279 -3.237300 -11.069600 32.514900 2.011768 0.369530 6.086947 1.340615 -0.514364 -5.066164 2.591823 0.627144 -12.948906 -16.018021 -15.177538 3.388596 16.081917 -26.433788 6.132519 8.345800 -14.393000 5.543800 -1.455121 -13.458137 3.900135 -83.842174 25.345668 46.157468 135.082019 -42.488383 -98.558606 1.264397 1.461344 15.929402 22.013875 30.300346 10.519400 -7.125000 0.000000 0.000000 -11.007000 59.954700 -4.046400 1.547990 12.708284 -0.467338 3.377646 38.574387 -42.493256 -92.975965 57.246528 -67.650879 -0.978717 1.698094 -42.944414 -0.339274 11.378730 -0.128600 7.125000 0.000000 0.000000 18.521300 -20.687100 11.384400 
